<?xml version="1.0" encoding="UTF-8"?>
<svg version="1.1" xmlns="http://www.w3.org/2000/svg" width="512" height="512">
<path d="M0 0 C1.46183962 -0.00461698 2.92367458 -0.01097522 4.38549995 -0.01890898 C8.37569566 -0.03551624 12.3655058 -0.0273955 16.3557024 -0.0149641 C20.66935066 -0.00588044 24.98293453 -0.01989972 29.29656982 -0.03088379 C37.73638669 -0.04863832 46.17606098 -0.04484272 54.61588335 -0.03323323 C61.47719012 -0.02418709 68.33845704 -0.02298001 75.19976807 -0.02732849 C76.66648537 -0.02824789 76.66648537 -0.02824789 78.16283333 -0.02918586 C80.14945143 -0.03046481 82.13606951 -0.03176166 84.12268758 -0.03307623 C102.73623404 -0.04447304 121.34970161 -0.03138242 139.96323514 -0.00987476 C155.92263246 0.0079954 171.88191338 0.00489104 187.84130859 -0.0135498 C206.38980716 -0.03497239 224.93823663 -0.04337449 243.48674583 -0.03110075 C245.46591567 -0.0298266 247.44508551 -0.02856912 249.42425537 -0.02732849 C250.88480888 -0.02640284 250.88480888 -0.02640284 252.37486851 -0.02545848 C259.22521002 -0.02200975 266.07550758 -0.02782365 272.92584229 -0.0372467 C281.27803328 -0.04848349 289.63007397 -0.04539137 297.98224783 -0.02412373 C302.24088148 -0.01363589 306.49926482 -0.00945264 310.75789642 -0.02272034 C314.66136652 -0.03469731 318.56435585 -0.02799518 322.46778274 -0.00681013 C323.87476879 -0.0023664 325.28179601 -0.00455986 326.68875527 -0.01431328 C339.64671192 -0.09720415 349.77751974 2.40600934 359.31201172 11.50793457 C369.8315851 22.52744807 370.90629562 34.38643211 370.82958984 48.92199707 C370.8350194 50.65945012 370.84214671 52.39689855 370.85083008 54.13433838 C370.86896731 58.82447487 370.86203582 63.51425692 370.84931374 68.20439911 C370.83913606 73.12931727 370.84859259 78.05420653 370.8548584 82.97912598 C370.86212097 91.2472474 370.85258366 99.51522556 370.83349609 107.7833252 C370.81173005 117.3213658 370.81878241 126.85906431 370.84080172 136.39709663 C370.8589954 144.60891699 370.86149467 152.82063478 370.85104704 161.0324688 C370.84483389 165.9271187 370.8439162 170.82160817 370.85719299 175.71624756 C370.86880881 180.31950014 370.86062183 184.92231471 370.83761597 189.52552032 C370.83235934 191.20763677 370.83378999 192.88979054 370.84266663 194.57189178 C370.90825082 208.27038631 369.10986546 219.24444025 359.31201172 229.50793457 C349.11150906 239.2456545 338.34099647 241.11095891 324.62402344 241.01586914 C323.16218382 241.02048612 321.70034886 241.02684436 320.23852348 241.03477812 C316.24832778 241.05138538 312.25851763 241.04326464 308.26832104 241.03083324 C303.95467278 241.02174958 299.64108891 241.03576886 295.32745361 241.04675293 C286.88763675 241.06450746 278.44796246 241.06071186 270.00814009 241.04910237 C263.14683331 241.04005623 256.2855664 241.03884915 249.42425537 241.04319763 C248.44644383 241.04381056 247.4686323 241.0444235 246.4611901 241.045055 C244.47457201 241.04633395 242.48795393 241.0476308 240.50133586 241.04894537 C221.88778939 241.06034218 203.27432182 241.04725156 184.6607883 241.0257439 C168.70139098 241.00787374 152.74211006 241.0109781 136.78271484 241.02941895 C118.23421628 241.05084153 99.68578681 241.05924363 81.1372776 241.04696989 C79.15810777 241.04569574 77.17893792 241.04443826 75.19976807 241.04319763 C73.73921456 241.04227198 73.73921456 241.04227198 72.24915493 241.04132763 C65.39881342 241.03787889 58.54851585 241.04369279 51.69818115 241.05311584 C43.34599015 241.06435263 34.99394946 241.06126051 26.64177561 241.03999287 C22.38314196 241.02950503 18.12475862 241.02532178 13.86612701 241.03858948 C9.96265692 241.05056645 6.05966759 241.04386432 2.1562407 241.02267927 C0.74925465 241.01823554 -0.65777257 241.020429 -2.06473184 241.03018242 C-15.02268848 241.11307329 -25.1534963 238.6098598 -34.68798828 229.50793457 C-45.20756166 218.48842107 -46.28227218 206.62943703 -46.20556641 192.09387207 C-46.21099596 190.35641903 -46.21812328 188.61897059 -46.22680664 186.88153076 C-46.24494387 182.19139427 -46.23801239 177.50161222 -46.2252903 172.81147003 C-46.21511262 167.88655187 -46.22456915 162.96166261 -46.23083496 158.03674316 C-46.23809754 149.76862174 -46.22856022 141.50064358 -46.20947266 133.23254395 C-46.18770662 123.69450334 -46.19475897 114.15680483 -46.21677828 104.61877251 C-46.23497196 96.40695215 -46.23747124 88.19523436 -46.2270236 79.98340034 C-46.22081045 75.08875044 -46.21989277 70.19426097 -46.23316956 65.29962158 C-46.24478538 60.696369 -46.2365984 56.09355443 -46.21359253 51.49034882 C-46.2083359 49.80823237 -46.20976656 48.1260786 -46.21864319 46.44397736 C-46.28422738 32.74548283 -44.48584202 21.77142889 -34.68798828 11.50793457 C-24.48748562 1.77021464 -13.71697303 -0.09508977 0 0 Z M-23.93798828 25.94543457 C-29.16269227 32.35695121 -29.81002961 39.14565038 -29.82170105 47.24311829 C-29.82396661 47.89526312 -29.82623216 48.54740795 -29.82856637 49.21931475 C-29.83486461 51.39081638 -29.83407971 53.56225493 -29.83325195 55.73376465 C-29.83624606 57.29638245 -29.83964918 58.85899951 -29.84342957 60.4216156 C-29.85224838 64.65727067 -29.8546068 68.89290552 -29.85524535 73.12856889 C-29.85595709 75.77767219 -29.85809375 78.42677039 -29.86074257 81.07587242 C-29.86998917 90.3257721 -29.87407834 99.57565738 -29.87329102 108.82556152 C-29.87269049 117.43470612 -29.88323913 126.043788 -29.89903468 134.65291673 C-29.91212991 142.05524324 -29.91747408 149.4575493 -29.91683561 156.8598873 C-29.91658119 161.2760833 -29.91940113 165.69222356 -29.93001366 170.10840797 C-29.93972799 174.26413848 -29.93975104 178.41976032 -29.93249702 182.57549477 C-29.9314553 184.09558776 -29.93378944 185.61568765 -29.93985748 187.13576889 C-30.22294008 202.27071466 -30.22294008 202.27071466 -23.68798828 215.50793457 C-16.53865177 222.60620439 -9.78341454 224.62957989 0.27259541 224.63656902 C1.44941232 224.63979347 2.62622923 224.64301792 3.83870727 224.64634007 C5.12244977 224.64479147 6.40619227 224.64324287 7.72883606 224.64164734 C9.11353371 224.6435164 10.49823083 224.64581748 11.88292712 224.64851266 C15.68293035 224.65462535 19.48291155 224.65449769 23.28291857 224.65331829 C27.38323151 224.65311415 31.4835374 224.65863431 35.58384705 224.66337585 C43.61522305 224.67168003 51.64659171 224.67443059 59.67797164 224.67498823 C66.20664308 224.6754635 72.7353121 224.67751878 79.26398277 224.68068886 C97.77635369 224.68949476 116.2887188 224.69410833 134.80109183 224.69335838 C136.2979022 224.69329845 136.2979022 224.69329845 137.82495117 224.6932373 C138.82404393 224.69319642 139.82313669 224.69315554 140.85250499 224.69311342 C157.04470222 224.69270696 173.23687619 224.70227673 189.4290667 224.71637567 C206.05743424 224.7307401 222.68579044 224.73764582 239.31416434 224.7367819 C248.64878712 224.73644995 257.98338551 224.73919593 267.3180027 224.74995995 C275.26555541 224.75906581 283.21307269 224.76123948 291.16062836 224.75445052 C295.21436823 224.75118577 299.26804012 224.75112703 303.32177353 224.75980377 C307.03584547 224.76767164 310.74979555 224.76623443 314.46386453 224.75751964 C316.43727531 224.75526082 318.41068988 224.76281106 320.38408595 224.77075928 C330.41820282 224.73180665 339.46849256 224.39349343 346.94091797 216.86730957 C353.24679236 209.87766567 354.43231503 203.07602709 354.44572449 193.77275085 C354.44799004 193.12060602 354.4502556 192.46846119 354.45258981 191.79655439 C354.45888805 189.62505276 354.45810315 187.45361421 354.45727539 185.28210449 C354.4602695 183.71948669 354.46367261 182.15686963 354.467453 180.59425354 C354.47627182 176.35859847 354.47863023 172.12296362 354.47926879 167.88730025 C354.47998052 165.23819695 354.48211719 162.58909875 354.48476601 159.93999672 C354.4940126 150.69009704 354.49810177 141.44021176 354.49731445 132.19030762 C354.49671393 123.58116302 354.50726257 114.97208114 354.52305812 106.36295241 C354.53615335 98.9606259 354.54149751 91.55831984 354.54085904 84.15598184 C354.54060463 79.73978584 354.54342457 75.32364558 354.55403709 70.90746117 C354.56375142 66.75173066 354.56377448 62.59610882 354.55652046 58.44037437 C354.55547874 56.92028138 354.55781288 55.40018149 354.56388092 53.88010025 C354.84696352 38.74515448 354.84696352 38.74515448 348.31201172 25.50793457 C341.16267521 18.40966475 334.40743798 16.38628925 324.35142803 16.37930012 C323.17461112 16.37607567 321.9977942 16.37285123 320.78531617 16.36952907 C318.85970242 16.37185197 318.85970242 16.37185197 316.89518738 16.3742218 C315.51048973 16.37235274 314.12579261 16.37005166 312.74109632 16.36735648 C308.94109309 16.36124379 305.14111188 16.36137145 301.34110487 16.36255085 C297.24079193 16.36275499 293.14048604 16.35723483 289.04017639 16.35249329 C281.00880039 16.34418911 272.97743173 16.34143855 264.9460518 16.34088091 C258.41738036 16.34040564 251.88871134 16.33835036 245.36004066 16.33518028 C226.84766975 16.32637438 208.33530463 16.32176081 189.82293161 16.32251076 C188.32612123 16.32257069 188.32612123 16.32257069 186.79907227 16.32263184 C185.79997951 16.32267272 184.80088675 16.3227136 183.77151845 16.32275572 C167.57932122 16.32316218 151.38714724 16.31359242 135.19495674 16.29949347 C118.5665892 16.28512904 101.938233 16.27822332 85.3098591 16.27908725 C75.97523632 16.27941919 66.64063792 16.27667321 57.30602074 16.26590919 C49.35846803 16.25680333 41.41095075 16.25462966 33.46339508 16.26141862 C29.40965521 16.26468337 25.35598331 16.26474212 21.30224991 16.25606537 C17.58817797 16.2481975 13.87422789 16.24963471 10.16015891 16.2583495 C8.18674813 16.26060832 6.21333355 16.25305808 4.23993748 16.24510986 C-7.02274351 16.2888318 -16.01681323 17.16533692 -23.93798828 25.94543457 Z " fill="#000000" transform="translate(125.68798828125,255.4920654296875)"/>
<path d="M0 0 C1.73745304 -0.00542956 3.47490148 -0.01255687 5.21234131 -0.02124023 C9.9024778 -0.03937747 14.59225985 -0.03244598 19.28240204 -0.01972389 C24.2073202 -0.00954621 29.13220946 -0.01900275 34.05712891 -0.02526855 C42.32525033 -0.03253113 50.59322849 -0.02299382 58.86132812 -0.00390625 C68.39936873 0.01785979 77.93706724 0.01080744 87.47509956 -0.01121187 C95.68691992 -0.02940556 103.89863771 -0.03190483 112.11047173 -0.0214572 C117.00512163 -0.01524404 121.8996111 -0.01432636 126.79425049 -0.02760315 C131.39750307 -0.03921897 136.00031764 -0.03103199 140.60352325 -0.00802612 C142.2856397 -0.00276949 143.96779347 -0.00420015 145.64989471 -0.01307678 C159.34838924 -0.07866098 170.32244318 1.71972438 180.5859375 11.51757812 C191.50566274 22.9562606 192.17733822 35.07245832 192.10351562 50.05249023 C192.10894393 51.90967353 192.11607055 53.76685252 192.12475586 55.62402344 C192.14289894 60.63805217 192.13596148 65.65174955 192.12323952 70.66578364 C192.11307556 75.92096105 192.12251362 81.17611109 192.12878418 86.43128967 C192.13604622 95.24664381 192.12650612 104.06186356 192.10742188 112.87719727 C192.08560864 123.07088436 192.09274258 133.26425197 192.1147275 143.45793146 C192.1328663 152.21910526 192.13544868 160.98018281 192.12497282 169.74136931 C192.11873561 174.97058167 192.11790952 180.19964365 192.13111877 185.42884636 C192.14265616 190.33821763 192.13469031 195.24717528 192.11154175 200.15650177 C192.10624538 201.95927556 192.10778425 203.76208408 192.11659241 205.56484413 C192.12749397 208.02217201 192.11385141 210.47816704 192.09387207 212.93540955 C192.10279496 213.65164409 192.11171784 214.36787864 192.12091112 215.10581726 C192.06700509 218.51424805 191.80550773 220.23652274 189.67919159 222.95826054 C187.40777062 224.65029911 186.38180655 225.06126358 183.5859375 225.01757812 C182.5959375 225.03304687 182.5959375 225.03304687 181.5859375 225.04882812 C178.60377182 224.25669037 177.48910411 222.93339483 175.5859375 220.51757812 C175.08371544 217.23939991 175.08371544 217.23939991 175.08041382 213.2636261 C175.0743237 212.53151907 175.06823358 211.79941203 175.06195891 211.04511994 C175.04633684 208.59071119 175.05915567 206.13727526 175.07177734 203.68286133 C175.06631741 201.92349127 175.05907651 200.16412597 175.05018616 198.4047699 C175.03483473 194.61459081 175.03205309 190.82468249 175.03895187 187.03447914 C175.04973051 181.03729791 175.03236399 175.04039983 175.01113892 169.04325867 C174.98085652 159.55199652 174.9691826 150.06081804 174.96556246 140.56951159 C174.95892326 123.5888395 174.92983502 106.60822606 174.8804661 89.62762517 C174.86399862 83.67069688 174.8585457 77.71389027 174.86205649 71.75694144 C174.86249488 68.04281912 174.8549087 64.32874235 174.84538078 60.61463356 C174.84270765 58.89781377 174.84343323 57.18098464 174.84789085 55.46416855 C175.27255589 39.52918474 175.27255589 39.52918474 168.5859375 25.51757812 C161.63144841 18.62056415 154.37750713 17.39759693 144.85075378 17.38386536 C144.19860895 17.3815998 143.54646412 17.37933424 142.87455732 17.37700003 C140.70305569 17.3707018 138.53161714 17.3714867 136.36010742 17.37231445 C134.79748962 17.36932034 133.23487256 17.36591723 131.67225647 17.36213684 C127.4366014 17.35331802 123.20096655 17.35095961 118.96530318 17.35032105 C116.31619988 17.34960932 113.66710168 17.34747265 111.01799965 17.34482384 C101.76809997 17.33557724 92.51821469 17.33148807 83.26831055 17.33227539 C74.65916595 17.33287592 66.05008407 17.32232728 57.44095534 17.30653173 C50.03862883 17.29343649 42.63632277 17.28809233 35.23398477 17.2887308 C30.81778877 17.28898522 26.40164851 17.28616528 21.9854641 17.27555275 C17.82973359 17.26583842 13.67411175 17.26581536 9.5183773 17.27306938 C7.99828431 17.2741111 6.47818442 17.27177697 4.95810318 17.26570892 C-10.17094117 16.98821466 -10.17094117 16.98821466 -23.4140625 23.51757812 C-30.06150846 30.22041947 -31.53628862 37.25780783 -31.54269695 46.47816181 C-31.5459214 47.65497873 -31.54914585 48.83179564 -31.552468 50.04427367 C-31.5509194 51.32801618 -31.5493708 52.61175868 -31.54777527 53.93440247 C-31.54964433 55.31910012 -31.55194541 56.70379724 -31.55464059 58.08849353 C-31.56075328 61.88849675 -31.56062562 65.68847796 -31.55944622 69.48848498 C-31.55924208 73.58879792 -31.56476224 77.6891038 -31.56950378 81.78941345 C-31.57780796 89.82078945 -31.58055852 97.85215811 -31.58111616 105.88353804 C-31.58159143 112.41220949 -31.58364671 118.9408785 -31.58681679 125.46954918 C-31.59562269 143.98192009 -31.60023626 162.49428521 -31.59948631 181.00665823 C-31.59942638 182.50346861 -31.59942638 182.50346861 -31.59936523 184.03051758 C-31.59932435 185.02961034 -31.59928347 186.0287031 -31.59924135 187.0580714 C-31.59883489 203.25026863 -31.60840466 219.4424426 -31.6225036 235.6346331 C-31.63686803 252.26300064 -31.64377375 268.89135684 -31.64290982 285.51973075 C-31.64257788 294.85435352 -31.64532386 304.18895192 -31.65608788 313.52356911 C-31.66519374 321.47112182 -31.66736741 329.41863909 -31.66057845 337.36619476 C-31.6573137 341.41993464 -31.65725496 345.47360653 -31.6659317 349.52733994 C-31.67379957 353.24141187 -31.67236236 356.95536196 -31.66364757 360.66943093 C-31.66138875 362.64284172 -31.66893899 364.61625629 -31.67688721 366.58965236 C-31.64137301 375.73803716 -31.45584151 384.13318156 -25.4140625 391.51757812 C-19.43529334 397.44693596 -13.0731565 398.90926561 -5.05859375 400.63867188 C-2.4140625 401.51757812 -2.4140625 401.51757812 -0.4140625 404.51757812 C0.26095504 411.60526226 0.26095504 411.60526226 -2.05859375 414.74023438 C-6.57342129 418.14694504 -12.02784666 417.10926888 -17.4140625 416.51757812 C-28.10219096 414.15022071 -36.48480871 407.91797595 -42.79983568 399.06103325 C-48.45836737 390.14517257 -48.99345679 381.13785948 -48.92199707 370.82958984 C-48.92661405 369.36775023 -48.93297229 367.90591527 -48.94090605 366.44408989 C-48.95751331 362.45389418 -48.94939257 358.46408404 -48.93696117 354.47388744 C-48.92787751 350.16023919 -48.94189679 345.84665531 -48.95288086 341.53302002 C-48.97063539 333.09320316 -48.96683979 324.65352886 -48.9552303 316.21370649 C-48.94618416 309.35239972 -48.94497708 302.49113281 -48.94932556 295.62982178 C-48.94993849 294.65201024 -48.95055143 293.6741987 -48.95118293 292.66675651 C-48.95246188 290.68013842 -48.95375873 288.69352034 -48.9550733 286.70690227 C-48.96647011 268.0933558 -48.95337949 249.47988823 -48.93187183 230.8663547 C-48.91400167 214.90695739 -48.91710603 198.94767647 -48.93554688 182.98828125 C-48.95696946 164.43978269 -48.96537156 145.89135321 -48.95309782 127.34284401 C-48.95182367 125.36367417 -48.95056619 123.38450433 -48.94932556 121.40533447 C-48.94870846 120.43163214 -48.94809136 119.4579298 -48.94745556 118.45472133 C-48.94400682 111.60437982 -48.94982072 104.75408226 -48.95924377 97.90374756 C-48.97048056 89.55155656 -48.96738844 81.19951587 -48.9461208 72.84734201 C-48.93563296 68.58870837 -48.93144971 64.33032502 -48.94471741 60.07169342 C-48.95669438 56.16822333 -48.94999225 52.26523399 -48.9288072 48.36180711 C-48.92436347 46.95482106 -48.92655693 45.54779383 -48.93631035 44.14083457 C-49.01920122 31.18287793 -46.51598773 21.0520701 -37.4140625 11.51757812 C-26.394549 0.99800475 -14.53556496 -0.07670577 0 0 Z " fill="#65743a" transform="translate(64.4140625,15.482421875)"/>
<path d="M0 0 C3.69186542 2.59216083 4.82883761 4.04149064 5.625 8.5 C4.85250889 12.82595022 3.30344612 14.40080503 0 17 C-0.84433594 17.68835938 -1.68867188 18.37671875 -2.55859375 19.0859375 C-5.02312082 21.07853386 -7.5041171 23.04691105 -10 25 C-5.88458855 26.44631073 -1.7587682 27.59619878 2.46875 28.6472168 C28.99019249 35.29103189 52.66222404 47.01397669 72.671875 65.82421875 C74.48568315 67.51933811 76.3022971 69.09246535 78.25 70.625 C104.81704534 93.56926643 117.76598334 128.76607642 125 162 C126.01320313 160.30230469 126.01320313 160.30230469 127.046875 158.5703125 C127.94738705 157.08821975 128.84845801 155.60646648 129.75 154.125 C130.1934375 153.37863281 130.636875 152.63226563 131.09375 151.86328125 C131.53203125 151.14785156 131.9703125 150.43242187 132.421875 149.6953125 C132.81987305 149.03547363 133.21787109 148.37563477 133.62792969 147.69580078 C135.26040519 145.67815402 136.57632408 144.90125775 139 144 C143.14469235 144.07401236 145.27768325 144.40408868 148.5 147.0625 C150.5034789 150.9859795 150.19975445 153.88917707 149 158 C147.07110637 161.79453885 144.74987558 165.28432243 142.375 168.8125 C141.77042969 169.73353516 141.16585937 170.65457031 140.54296875 171.60351562 C139.321266 173.46472375 138.09305718 175.32167745 136.85839844 177.17431641 C134.38481533 180.93538458 132.0190504 184.76109825 129.66259766 188.59643555 C127.95156093 191.07002681 126.29287621 193.05181537 124 195 C116.82944846 196.1305949 112.8715173 193.66828019 107.0625 189.6875 C106.2485376 189.1500415 105.4345752 188.61258301 104.59594727 188.05883789 C102.90363684 186.941046 101.21574865 185.8165317 99.53222656 184.68554688 C97.06097299 183.04058595 94.56588562 181.44254345 92.0546875 179.859375 C91.27730225 179.36735596 90.49991699 178.87533691 89.69897461 178.3684082 C88.21950359 177.43229899 86.7386003 176.49844863 85.25610352 175.56713867 C82.1390785 173.56698768 80.0800209 172.12003135 78 169 C77.42938982 164.59815002 77.49243938 162.70162792 80.125 159.0625 C83.652185 156.53212815 84.72840098 156.44133022 89 157 C92.11652104 158.41836498 94.97716798 160.18271551 97.875 162 C98.65875 162.47695312 99.4425 162.95390625 100.25 163.4453125 C102.17421505 164.61861436 104.09012729 165.80354526 106 167 C105.63116269 151.44304024 100.13565479 135.68528963 93 122 C92.39728329 120.779215 91.79577572 119.55783249 91.1953125 118.3359375 C75.2240036 86.47071192 46.08210565 62.04085675 12.63671875 50.1875 C-0.92508269 45.62762658 -0.92508269 45.62762658 -15 44 C-14.64172119 44.4439209 -14.28344238 44.8878418 -13.91430664 45.34521484 C-12.29513011 47.35361397 -10.67878604 49.36427412 -9.0625 51.375 C-8.49853516 52.07367188 -7.93457031 52.77234375 -7.35351562 53.4921875 C-6.54624023 54.49765625 -6.54624023 54.49765625 -5.72265625 55.5234375 C-4.97640991 56.450354 -4.97640991 56.450354 -4.21508789 57.39599609 C-1.55777812 60.90383721 -1.55754169 63.64915992 -2 68 C-4.125 70.9375 -4.125 70.9375 -7 73 C-11.04258559 73.57751223 -13.53510101 73.05983149 -17 71 C-18.45703125 69.45043945 -18.45703125 69.45043945 -19.8125 67.61328125 C-20.32522461 66.92886963 -20.83794922 66.24445801 -21.36621094 65.53930664 C-21.90536133 64.80446045 -22.44451172 64.06961426 -23 63.3125 C-24.149476 61.77486999 -25.30055493 60.23843714 -26.453125 58.703125 C-27.33000977 57.53233398 -27.33000977 57.53233398 -28.22460938 56.33789062 C-31.49261405 52.03447853 -34.89891634 47.8423444 -38.3046875 43.64770508 C-41.91513054 39.18089158 -43.09921193 36.93966921 -43.5234375 31.16796875 C-41.65202989 23.41698948 -28.08465811 15.81376846 -22 11 C-21.3085791 10.44779785 -20.6171582 9.8955957 -19.90478516 9.32666016 C-17.93034792 7.76023865 -15.93810364 6.22029827 -13.9375 4.6875 C-13.34340332 4.2136084 -12.74930664 3.7397168 -12.13720703 3.25146484 C-7.99675799 0.14350605 -5.13185941 -0.66615483 0 0 Z " fill="#000000" transform="translate(323,39)"/>
<path d="M0 0 C0.66 -0.0103125 1.32 -0.020625 2 -0.03125 C4.9192339 0.7441715 6.09362068 2.18867521 8 4.5 C8.50793457 7.08007812 8.50793457 7.08007812 8.51757812 10.03125 C8.53018677 11.13919922 8.54279541 12.24714844 8.55578613 13.38867188 C8.54768921 14.58041016 8.53959229 15.77214844 8.53125 17 C8.5350769 18.22783203 8.53890381 19.45566406 8.54284668 20.72070312 C8.54556842 23.31641459 8.53818911 25.91215336 8.52148438 28.5078125 C8.50008075 32.48499599 8.52127963 36.46037282 8.546875 40.4375 C8.54423177 42.95833733 8.53910691 45.47917353 8.53125 48 C8.53934692 49.19173828 8.54744385 50.38347656 8.55578613 51.61132812 C8.54317749 52.71927734 8.53056885 53.82722656 8.51757812 54.96875 C8.51280457 56.42958008 8.51280457 56.42958008 8.50793457 57.91992188 C7.85796634 61.22146681 6.58462403 62.41577655 4 64.5 C2 65.03125 2 65.03125 0 65 C-0.66 65.0103125 -1.32 65.020625 -2 65.03125 C-4.9192339 64.2558285 -6.09362068 62.81132479 -8 60.5 C-8.50793457 57.91992188 -8.50793457 57.91992188 -8.51757812 54.96875 C-8.53018677 53.86080078 -8.54279541 52.75285156 -8.55578613 51.61132812 C-8.54768921 50.41958984 -8.53959229 49.22785156 -8.53125 48 C-8.5350769 46.77216797 -8.53890381 45.54433594 -8.54284668 44.27929688 C-8.54556842 41.68358541 -8.53818911 39.08784664 -8.52148438 36.4921875 C-8.50008075 32.51500401 -8.52127963 28.53962718 -8.546875 24.5625 C-8.54423177 22.04166267 -8.53910691 19.52082647 -8.53125 17 C-8.53934692 15.80826172 -8.54744385 14.61652344 -8.55578613 13.38867188 C-8.54317749 12.28072266 -8.53056885 11.17277344 -8.51757812 10.03125 C-8.51439575 9.05736328 -8.51121338 8.08347656 -8.50793457 7.08007812 C-7.60624909 2.49992327 -4.66382617 -0.07287228 0 0 Z " fill="#65743a" transform="translate(456,343.5)"/>
<path d="M0 0 C1.10794922 -0.01260864 2.21589844 -0.02521729 3.35742188 -0.03820801 C4.54916016 -0.03011108 5.74089844 -0.02201416 6.96875 -0.01367188 C8.19658203 -0.01749878 9.42441406 -0.02132568 10.68945312 -0.02526855 C13.28516459 -0.02799029 15.88090336 -0.02061099 18.4765625 -0.00390625 C22.45374599 0.01749738 26.42912282 -0.0037015 30.40625 -0.02929688 C32.92708733 -0.02665365 35.44792353 -0.02152878 37.96875 -0.01367188 C39.16048828 -0.0217688 40.35222656 -0.02986572 41.58007812 -0.03820801 C43.24200195 -0.01929504 43.24200195 -0.01929504 44.9375 0 C45.91138672 0.00318237 46.88527344 0.00636475 47.88867188 0.00964355 C51.19021681 0.65961178 52.38452655 1.93295409 54.46875 4.51757812 C55 6.51757812 55 6.51757812 54.96875 8.51757812 C54.98421875 9.50757813 54.98421875 9.50757813 55 10.51757812 C54.2245785 13.43681202 52.78007479 14.6111988 50.46875 16.51757812 C47.88867188 17.0255127 47.88867188 17.0255127 44.9375 17.03515625 C43.82955078 17.04776489 42.72160156 17.06037354 41.58007812 17.07336426 C40.38833984 17.06526733 39.19660156 17.05717041 37.96875 17.04882812 C36.12700195 17.05456848 36.12700195 17.05456848 34.24804688 17.0604248 C31.65233541 17.06314654 29.05659664 17.05576724 26.4609375 17.0390625 C22.48375401 17.01765887 18.50837718 17.03885775 14.53125 17.06445312 C12.01041267 17.0618099 9.48957647 17.05668503 6.96875 17.04882812 C5.77701172 17.05692505 4.58527344 17.06502197 3.35742188 17.07336426 C1.69549805 17.05445129 1.69549805 17.05445129 0 17.03515625 C-0.97388672 17.03197388 -1.94777344 17.0287915 -2.95117188 17.0255127 C-6.25271681 16.37554447 -7.44702655 15.10220216 -9.53125 12.51757812 C-10.0625 10.51757812 -10.0625 10.51757812 -10.03125 8.51757812 C-10.04671875 7.52757812 -10.04671875 7.52757812 -10.0625 6.51757812 C-8.67664018 1.3002235 -4.95665502 0.01619688 0 0 Z " fill="#000000" transform="translate(113.53125,47.482421875)"/>
</svg>
